# Blender 3.5.0
# www.blender.org
mtllib block.mtl
o Cube
v -1.000000 -1.000000 1.000000
v -1.000000 1.000000 1.000000
v -1.000000 -1.000000 -1.000000
v -1.000000 1.000000 -1.000000
v 1.000000 -1.000000 1.000000
v 1.000000 1.000000 1.000000
v 1.000000 -1.000000 -1.000000
v 1.000000 1.000000 -1.000000
v -0.348848 -1.000000 -1.000000
v -0.348848 1.000000 -1.000000
v -0.348848 -1.000000 1.000000
v -0.348848 1.000000 1.000000
v -1.000000 -1.000000 -0.409756
v -1.000000 1.000000 -0.409756
v 1.000000 -1.000000 -0.409756
v 1.000000 1.000000 -0.409756
v -0.348848 1.000000 -0.409756
v -0.348848 -1.000000 -0.409756
v 1.000000 1.884368 -0.409756
v 1.000000 1.884368 1.000000
v -0.348848 1.884368 1.000000
v -0.348848 1.884368 -0.409756
vn -1.0000 -0.0000 -0.0000
vn -0.0000 -0.0000 -1.0000
vn 1.0000 -0.0000 -0.0000
vn -0.0000 -0.0000 1.0000
vn -0.0000 -1.0000 -0.0000
vn -0.0000 1.0000 -0.0000
vt 0.375000 1.000000
vt 0.125000 0.750000
vt 0.375000 0.000000
vt 0.625000 1.000000
vt 0.875000 0.750000
vt 0.625000 0.000000
vt 0.375000 0.250000
vt 0.125000 0.500000
vt 0.625000 0.250000
vt 0.875000 0.500000
vt 0.375000 0.750000
vt 0.625000 0.750000
vt 0.375000 0.500000
vt 0.625000 0.500000
vt 0.375000 0.331394
vt 0.206394 0.500000
vt 0.625000 0.331394
vt 0.793606 0.500000
vt 0.206394 0.750000
vt 0.375000 0.918606
vt 0.625000 0.918606
vt 0.793606 0.750000
vt 0.125000 0.573780
vt 0.375000 0.176220
vt 0.875000 0.573780
vt 0.625000 0.176220
vt 0.375000 0.573780
vt 0.625000 0.573780
vt 0.793606 0.573780
vt 0.206394 0.573780
vt 0.625000 0.573780
vt 0.625000 0.750000
vt 0.625000 0.918606
vt 0.793606 0.750000
vt 0.793606 0.573780
s 0
f 13/24/1 14/26/1 4/9/1 3/7/1
f 9/15/2 10/17/2 8/14/2 7/13/2
f 15/27/3 16/28/3 6/12/3 5/11/3
f 11/20/4 12/21/4 2/4/4 1/1/4
f 18/30/5 15/27/5 5/11/5 11/19/5
f 17/29/6 14/25/6 2/5/6 12/22/6
f 12/21/4 6/12/4 20/32/4 21/33/4
f 13/23/5 18/30/5 11/19/5 1/2/5
f 5/11/4 6/12/4 12/21/4 11/20/4
f 3/7/2 4/9/2 10/17/2 9/15/2
f 3/8/5 9/16/5 18/30/5 13/23/5
f 8/14/6 10/18/6 17/29/6 16/28/6
f 10/18/6 4/10/6 14/25/6 17/29/6
f 9/16/5 7/13/5 15/27/5 18/30/5
f 7/13/3 8/14/3 16/28/3 15/27/3
f 1/3/1 2/6/1 14/26/1 13/24/1
f 19/31/6 22/35/6 21/34/6 20/32/6
f 17/29/1 12/22/1 21/34/1 22/35/1
f 16/28/2 17/29/2 22/35/2 19/31/2
f 6/12/3 16/28/3 19/31/3 20/32/3
